<svg width="512" height="512" viewBox="0 0 512 512" fill="none" xmlns="http://www.w3.org/2000/svg">
<g clip-path="url(#clip0_1_6)">
<path d="M128.125 153.269H66.4307C63.4684 153.269 60.9049 152.357 58.7402 150.534C56.6895 148.597 55.6641 146.262 55.6641 143.527V125.583C55.6641 122.963 56.6895 120.741 58.7402 118.918C60.9049 116.981 63.4684 116.013 66.4307 116.013H235.278C238.241 116.013 240.462 116.981 241.943 118.918C243.538 120.741 244.336 123.02 244.336 125.754V143.698C244.336 146.319 243.538 148.597 241.943 150.534C240.348 152.357 238.07 153.269 235.107 153.269H171.191V367.062C171.191 370.025 170.223 372.588 168.286 374.753C166.463 376.918 164.242 378 161.621 378H137.524C134.904 378 132.682 376.918 130.859 374.753C129.036 372.588 128.125 370.025 128.125 367.062V153.269Z" fill="#0E4DD5"/>
<path d="M340.125 153.269H278.431C275.468 153.269 272.905 152.357 270.74 150.534C268.689 148.597 267.664 146.262 267.664 143.527V125.583C267.664 122.963 268.689 120.741 270.74 118.918C272.905 116.981 275.468 116.013 278.431 116.013H447.278C450.241 116.013 452.462 116.981 453.943 118.918C455.538 120.741 456.336 123.02 456.336 125.754V143.698C456.336 146.319 455.538 148.597 453.943 150.534C452.348 152.357 450.07 153.269 447.107 153.269H383.191V367.062C383.191 370.025 382.223 372.588 380.286 374.753C378.463 376.918 376.242 378 373.621 378H349.524C346.904 378 344.682 376.918 342.859 374.753C341.036 372.588 340.125 370.025 340.125 367.062V153.269Z" fill="#0B3687"/>
</g>
<defs>
<clipPath id="clip0_1_6">
<rect width="512" height="512" fill="white"/>
</clipPath>
</defs>
</svg>
